<?xml version="1.0" encoding="utf-8"?>
<!-- Generator: Adobe Illustrator 15.1.0, SVG Export Plug-In . SVG Version: 6.00 Build 0)  -->
<!DOCTYPE svg PUBLIC "-//W3C//DTD SVG 1.1//EN" "http://www.w3.org/Graphics/SVG/1.1/DTD/svg11.dtd">
<svg version="1.1" id="Layer_1" xmlns="http://www.w3.org/2000/svg" xmlns:xlink="http://www.w3.org/1999/xlink" x="0px" y="0px"
	 width="512px" height="512px" viewBox="0 0 512 512" enable-background="new 0 0 512 512" xml:space="preserve">
<g>
	<path fill="#64dd17" d="M256.292,12.781c-98.628,0-178.585,79.955-178.585,178.585c0,42.256,13.724,77.289,34.268,113.638
		c48.065,85.042,144.533,193.714,144.533,193.714c64.417-69.391,147.02-206.308,147.02-206.308s31.351-63.531,31.351-101.044
		C434.877,92.736,354.921,12.781,256.292,12.781z M256.292,297.159c-66.021,0-119.546-53.523-119.546-119.546
		S190.271,58.067,256.292,58.067s119.546,53.522,119.546,119.546S322.313,297.159,256.292,297.159z"/>
	<circle fill="#33691e" cx="256.292" cy="177.613" r="72.107"/>
</g>
</svg>