<?xml version="1.0" encoding="UTF-8" standalone="no"?><!-- Generator: Gravit.io --><svg xmlns="http://www.w3.org/2000/svg" xmlns:xlink="http://www.w3.org/1999/xlink" style="isolation:isolate" viewBox="0 0 18 18" width="18pt" height="18pt"><defs><clipPath id="_clipPath_cXDjo1hViQQ7iYLY7DqMAQWY2vyFD5yn"><rect width="18" height="18"/></clipPath></defs><g clip-path="url(#_clipPath_cXDjo1hViQQ7iYLY7DqMAQWY2vyFD5yn)"><path d=" M 0 0 L 18 0 L 18 18 L 0 18 L 0 0 Z " fill="none"/><path d=" M 15.83 5.068 C 15.717 4.736 15.403 4.5 15.031 4.5 L 8.844 4.5 C 8.473 4.5 8.163 4.736 8.045 5.068 L 6.875 8.438 L 6.875 12.938 C 6.875 13.247 7.128 13.5 7.437 13.5 L 8 13.5 C 8.309 13.5 8.563 13.247 8.563 12.938 L 8.563 12.375 L 15.313 12.375 L 15.313 12.938 C 15.313 13.247 15.566 13.5 15.875 13.5 L 16.438 13.5 C 16.747 13.5 17 13.247 17 12.938 L 17 8.438 L 15.83 5.068 Z  M 8.844 10.688 C 8.377 10.688 8 10.311 8 9.844 C 8 9.377 8.377 9 8.844 9 C 9.311 9 9.688 9.377 9.688 9.844 C 9.688 10.311 9.311 10.688 8.844 10.688 Z  M 15.031 10.688 C 14.564 10.688 14.188 10.311 14.188 9.844 C 14.188 9.377 14.564 9 15.031 9 C 15.498 9 15.875 9.377 15.875 9.844 C 15.875 10.311 15.498 10.688 15.031 10.688 Z  M 8 7.875 L 8.844 5.344 L 15.031 5.344 L 15.875 7.875 L 8 7.875 Z " fill="rgb(0,0,0)"/><g><path d=" M 0.688 0.844 L 18.688 0.844 L 18.688 18.844 L 0.688 18.844 L 0.688 0.844 Z " fill="none"/><path d=" M 4.641 4.942 C 5.175 4.942 5.612 4.505 5.612 3.971 C 5.612 3.437 5.175 3 4.641 3 C 4.107 3 3.67 3.437 3.67 3.971 C 3.67 4.505 4.107 4.942 4.641 4.942 Z  M 2.845 6.592 L 1.485 13.437 L 2.505 13.437 L 3.379 9.554 L 4.398 10.525 L 4.398 13.437 L 5.369 13.437 L 5.369 9.797 L 4.35 8.826 L 4.641 7.369 C 5.272 8.097 6.243 8.583 7.311 8.583 L 7.311 7.612 C 6.389 7.612 5.612 7.126 5.224 6.447 L 4.738 5.67 C 4.466 5.238 3.922 5.063 3.452 5.262 L 1 6.301 L 1 8.583 L 1.971 8.583 L 1.971 6.932 L 2.845 6.592 Z " fill="rgb(0,0,0)"/></g></g></svg>