<svg xmlns="http://www.w3.org/2000/svg" width="24" height="24" viewBox="0 0 24 24">
  <path d="M 12.965 4 L 10.965 4 L 10.965 14 L 12.965 14 L 12.965 4 Z " fill="rgb(0,0,0)"/><path d=" M 16.525 6.44 L 15.075 7.89 C 16.805 8.94 17.965 10.83 17.965 13 C 17.965 16.31 15.275 19 11.965 19 C 8.655 19 5.965 16.31 5.965 13 C 5.965 10.83 7.125 8.94 8.845 7.88 L 7.405 6.44 C 5.325 7.88 3.965 10.28 3.965 13 C 3.965 17.42 7.545 21 11.965 21 C 16.385 21 19.965 17.42 19.965 13 C 19.965 10.28 18.605 7.88 16.525 6.44 Z " fill="rgb(0,0,0)"/>
</svg>